<svg width="160" height="41" viewBox="0 0 160 41" fill="none" xmlns="http://www.w3.org/2000/svg">
<path d="M25.4095 2.36615C25.2838 2.64908 25.0354 3.00747 24.4884 3.32813C24.4884 3.32813 24.174 3.68651 24.413 3.97259C24.6519 4.25867 26.7708 5.95315 23.4698 5.56961C23.4698 5.56961 21.0083 5.34012 19.1661 6.44042C19.1661 6.44042 17.2327 7.51244 17.1226 7.51244L14.6328 7.54073V8.27637H17.2767C17.2767 8.27637 18.333 8.50586 19.3453 7.99972C19.3453 7.99972 23.6207 5.92485 24.9631 10.543C24.9631 10.543 25.1832 13.3849 24.457 14.4601C24.457 14.4601 23.7308 16.4406 23.7999 17.5598C23.7999 17.5598 26.3841 20.4143 24.0703 25.5229L24.0514 27.1293H23.1303C23.1303 27.1293 22.1778 27.5192 22.2249 28.1793C22.2249 28.1793 21.8445 28.4937 21.6402 28.4497L19.5056 28.5503C19.5056 28.5503 18.4524 28.8961 18.1789 29.3551C18.1789 29.3551 17.8111 30.1002 19.9017 29.943L33.5235 29.8864C33.5235 29.8864 33.8379 28.7547 31.609 28.4434L29.9617 28.4088C29.9617 28.4088 29.641 28.3585 29.4618 27.6355C29.4618 27.6355 28.9368 27.1765 28.5124 27.1042L27.5944 27.1199L27.6416 25.5983C27.6416 25.5983 25.3184 20.0465 27.8616 17.5787C27.8616 17.5787 27.6604 14.9096 26.9688 13.6679C26.9688 13.6679 25.3655 7.16348 31.1248 7.54702C31.1248 7.54702 33.3034 8.45556 33.6052 8.51215C33.907 8.56873 33.4952 8.45556 33.4952 8.45556L36.969 8.31095V7.62247L34.4069 7.52816C34.4069 7.52816 31.2695 5.21437 28.591 5.53817C27.4813 5.7991 26.6136 5.73937 26.4878 5.39985C26.3778 5.10119 26.7205 4.31212 27.1857 4.0449C27.2518 4.00717 27.4278 3.91915 27.4435 3.77139C27.4561 3.64879 27.3492 3.54505 27.2769 3.4696C27.0694 3.26211 26.8997 3.02004 26.6859 2.82199C26.0791 2.26555 26.1169 1.53934 25.8748 1.55192C25.7082 1.55506 25.6233 1.87887 25.4095 2.36615Z" fill="white"/>
<path d="M14.8446 7.98096C14.8446 8.5154 14.4296 8.94924 13.9204 8.94924C13.4111 8.94924 12.9961 8.5154 12.9961 7.98096C12.9961 7.44653 13.4111 7.0127 13.9204 7.0127C14.4296 7.0127 14.8446 7.44653 14.8446 7.98096Z" fill="white"/>
<path d="M14.191 8.91699H13.7383V10.0362H14.191V8.91699Z" fill="white"/>
<path d="M38.7509 7.97218C38.7509 8.50661 38.3359 8.94045 37.8266 8.94045C37.3173 8.94045 36.9023 8.50661 36.9023 7.97218C36.9023 7.43774 37.3173 7.00391 37.8266 7.00391C38.3359 7.00391 38.7509 7.43774 38.7509 7.97218Z" fill="white"/>
<path d="M38.0894 8.9082H37.6367V10.0274H38.0894V8.9082Z" fill="white"/>
<path d="M37.6228 9.60654C37.6197 9.76373 37.6291 9.93349 37.5725 10.0687C37.1481 11.0904 36.708 12.1058 36.2741 13.1275C35.3499 15.303 34.4288 17.4816 33.5108 19.6571C33.4102 19.896 33.2939 20.1035 33.0707 20.2544C32.7657 20.4619 32.7028 20.7385 32.8349 21.0906C33.0141 21.5653 33.363 21.8765 33.7686 22.1217C34.9318 22.8291 36.2175 23.0869 37.5316 23.2032C38.2515 23.2661 38.9589 23.1215 39.6662 22.9831C40.3987 22.8417 41.0966 22.5996 41.7599 22.2506C42.2504 21.9929 42.6905 21.6596 42.9137 21.1C43.074 20.6945 43.0049 20.4901 42.6653 20.2261C42.549 20.1349 42.4327 20.0092 42.373 19.874C41.6845 18.2801 41.0086 16.6831 40.3296 15.0861C39.7008 13.6054 39.0909 12.1184 38.4307 10.6534C38.4087 10.6 38.3553 10.4742 38.2956 10.3013C38.195 10.0089 38.1321 9.76373 38.0944 9.59082M37.8271 9.96178C37.8711 9.96807 37.912 9.9775 37.956 9.98693C39.2512 13.247 40.5465 16.507 41.8637 19.8268C39.2104 19.1415 36.6105 19.1446 33.9195 19.8142C35.2273 16.4819 36.5351 13.225 37.8271 9.96178ZM37.6888 21.8577C35.331 21.8577 33.4165 21.2415 33.4165 20.4776C33.4165 20.4619 33.4196 20.4493 33.4196 20.4336C33.6648 21.0434 35.5196 21.5213 37.7737 21.5213C39.6662 21.5213 41.2758 21.1881 41.892 20.7196C41.5399 21.3672 39.7951 21.8577 37.6888 21.8577Z" fill="white"/>
<path d="M13.6853 9.72199C13.6821 9.87917 13.6916 10.0489 13.635 10.1841C13.2106 11.2058 12.7705 12.2213 12.3366 13.243C11.4155 15.4184 10.4913 17.597 9.57329 19.7725C9.47269 20.0114 9.35637 20.2189 9.13317 20.3698C8.82822 20.5773 8.76535 20.854 8.89739 21.206C9.07658 21.6808 9.42553 21.992 9.83107 22.2372C10.9943 22.9445 12.28 23.2023 13.5941 23.3186C14.314 23.3815 15.0214 23.2369 15.7287 23.0986C16.4612 22.9571 17.1591 22.715 17.8224 22.3661C18.3129 22.1083 18.753 21.7751 18.9762 21.2155C19.1365 20.8099 19.0674 20.6056 18.7278 20.3415C18.6115 20.2504 18.4952 20.1246 18.4355 19.9894C17.747 18.3955 17.0711 16.7985 16.392 15.2015C15.7633 13.7208 15.1534 12.2338 14.4932 10.7689C14.4712 10.7154 14.4178 10.5897 14.3581 10.4136C14.2575 10.1244 14.1946 9.87603 14.1569 9.70312M13.8928 10.0772C13.9368 10.0835 13.9777 10.0929 14.0217 10.0992C15.3169 13.3593 16.6121 16.6193 17.9293 19.9391C15.276 19.2538 12.6762 19.2569 9.98512 19.9265C11.2898 16.5942 12.5976 13.3404 13.8928 10.0772ZM13.7545 21.97C11.3967 21.97 9.48212 21.3538 9.48212 20.5899C9.48212 20.5742 9.48526 20.5616 9.48526 20.5459C9.73048 21.1557 11.5853 21.6336 13.8393 21.6336C15.7319 21.6336 17.3415 21.3004 17.9576 20.8319C17.6055 21.4796 15.8576 21.97 13.7545 21.97Z" fill="white"/>
<path d="M55.1247 2.0057C55.131 3.1123 54.2193 4.0114 53.119 4.0114C52.0187 4.0114 51.1133 3.10915 51.1133 2.00256C51.1133 0.905395 52.025 0 53.119 0C54.2193 0 55.131 0.908539 55.1247 2.0057ZM53.119 3.72218C54.0621 3.72218 54.8323 2.95197 54.8355 2.00885C54.8386 1.06258 54.0652 0.292367 53.119 0.292367C52.1759 0.292367 51.4056 1.06258 51.4025 2.0057C51.4025 2.94568 52.1759 3.71904 53.119 3.72218Z" fill="#282828"/>
<path d="M53.9485 3.00553C53.9359 3.00553 53.9265 3.00867 53.9202 3.00867C53.8039 3.00867 53.6844 3.00867 53.5681 3.00867C53.5461 3.00867 53.5335 3.00238 53.5241 2.98038C53.4235 2.71945 53.3197 2.45852 53.2191 2.19759C53.2066 2.16615 53.1908 2.15357 53.1563 2.15357C53.0337 2.15672 52.9079 2.15357 52.7853 2.15357H52.7413V2.20387C52.7413 2.45852 52.7413 2.71001 52.7413 2.96466C52.7413 2.99609 52.735 3.00867 52.7004 3.00867C52.5998 3.00553 52.5024 3.00553 52.4018 3.00867C52.3735 3.00867 52.3672 2.99924 52.3672 2.97409C52.3672 2.29504 52.3672 1.61285 52.3672 0.933804C52.3672 0.905511 52.3735 0.899224 52.4018 0.899224C52.6721 0.899224 52.9425 0.896079 53.2097 0.902367C53.3449 0.905511 53.4801 0.927517 53.6058 0.984104C53.7567 1.05327 53.8542 1.16644 53.8982 1.32677C53.9328 1.45252 53.9391 1.57827 53.9202 1.70402C53.895 1.86435 53.8039 1.97752 53.6593 2.04669C53.6278 2.06241 53.5807 2.07498 53.5744 2.09699C53.5681 2.12528 53.5932 2.163 53.609 2.19759C53.719 2.45852 53.8322 2.7163 53.9422 2.97723C53.9391 2.98666 53.9422 2.99295 53.9485 3.00553ZM52.7381 1.81719C52.7476 1.82034 52.7539 1.82034 52.757 1.82034C52.9173 1.82034 53.0777 1.82348 53.238 1.81719C53.2852 1.81719 53.3323 1.80462 53.3763 1.7889C53.4769 1.75118 53.5304 1.67258 53.5367 1.5657C53.5429 1.45881 53.5147 1.3645 53.4141 1.31105C53.3638 1.28276 53.304 1.2639 53.2443 1.26075C53.0871 1.25132 52.9331 1.25447 52.7759 1.25447C52.7444 1.25447 52.735 1.2639 52.7381 1.29533C52.7381 1.44623 52.7381 1.59713 52.7381 1.74803V1.81719Z" fill="#282828"/>
<path d="M0 13.5869C0.484135 14.8318 1.18519 15.907 2.1346 16.8218C2.35151 17.0324 2.49612 17.3845 2.56214 17.6989C2.71304 18.4031 2.79164 19.1199 2.79164 19.9435C2.42696 19.6072 2.02456 19.3054 1.70705 18.925C0.839377 17.8844 0.392967 16.63 0.157187 15.2845C0.125749 15.1022 0.0534435 14.9261 0 14.747V13.5869Z" fill="#AD892F"/>
<path d="M48.5276 12.0556C47.4367 10.2793 46.9086 8.30508 46.2861 6.37168C45.6699 4.454 45.0349 2.54261 44.4219 0.668945C47.4964 3.01417 49.9423 8.94011 48.5276 12.0556Z" fill="#AD892F"/>
<path d="M7.02949 0.666016C5.42933 4.41963 4.80688 8.48134 2.8389 12.1627C2.35476 10.9523 2.35162 9.84572 2.51509 8.7517C2.99294 5.52937 4.53966 2.91693 6.79057 0.725747C6.81572 0.697453 6.86602 0.70374 7.02949 0.666016Z" fill="#AD892F"/>
<path d="M35.3031 40.4097C33.0554 41.1831 30.7259 41.378 28.4844 39.8721C29.811 39.7244 31.0465 38.8787 32.4958 39.6804C33.3414 40.1456 34.3977 40.1896 35.3031 40.4097Z" fill="#AD892F"/>
<path d="M22.9622 39.8316C21.3401 41.1771 17.8411 41.3846 15.9297 40.2623C17.206 40.3283 18.3378 39.9605 19.4664 39.4952C19.8688 39.3286 20.3686 39.3317 20.8119 39.3852C21.5098 39.47 22.1983 39.6649 22.9622 39.8316Z" fill="#AD892F"/>
<path d="M39.4227 38.0992C37.3699 39.2655 35.1944 39.7842 32.8555 38.7562C34.0847 38.3067 35.1535 37.351 36.6594 37.876C37.5113 38.1715 38.4985 38.0394 39.4227 38.0992Z" fill="#AD892F"/>
<path d="M11.8242 37.9382C13.1037 38.2055 14.2952 38.0483 15.493 37.7402C15.8199 37.6553 16.2223 37.7465 16.5524 37.8659C17.2189 38.1049 17.8633 38.4192 18.5392 38.7116C17.046 39.8025 13.591 39.3372 11.8242 37.9382Z" fill="#AD892F"/>
<path d="M36.7578 36.8633C37.9179 36.1497 38.8641 35.1374 40.3983 35.37C41.2313 35.4958 42.1179 35.2317 42.8724 35.1562C41.9575 36.4106 38.5875 37.7278 36.7578 36.8633Z" fill="#AD892F"/>
<path d="M48.8838 15.5795C48.8838 14.8124 48.868 14.0453 48.8932 13.2783C48.9026 13.0362 48.9686 12.7564 49.1038 12.5646C49.8677 11.4706 50.4965 10.3169 50.7417 8.96191C51.0938 11.4518 50.8203 13.753 49.0661 15.6266C49.0032 15.6078 48.9435 15.5921 48.8838 15.5795Z" fill="#AD892F"/>
<path d="M14.7123 36.9231C12.1722 37.5204 10.1916 36.6276 8.45312 35.2129C9.61631 35.2663 10.8549 35.3166 12.0936 35.3827C12.2696 35.3921 12.4677 35.4298 12.6154 35.5273C13.2788 35.9485 13.9232 36.3949 14.7123 36.9231Z" fill="#AD892F"/>
<path d="M2.45654 15.7189C0.856377 14.3294 0.158468 11.7106 0.636316 9.07617C0.894102 10.4374 1.57944 11.5692 2.31507 12.6789C2.44082 12.8675 2.44396 13.1662 2.45025 13.4145C2.46597 14.1376 2.45654 14.8606 2.45654 15.7189Z" fill="#AD892F"/>
<path d="M40.2227 34.354C40.8074 33.7819 41.3261 33.238 41.8857 32.7445C42.0743 32.5778 42.3541 32.4898 42.6025 32.4395C43.1589 32.3295 43.7374 32.3106 44.2875 32.166C44.8345 32.0214 45.3564 31.773 45.8688 31.5781C45.2086 33.0808 41.8291 34.9891 40.2227 34.354Z" fill="#AD892F"/>
<path d="M3.00781 27.627C3.84719 28.0199 4.7683 28.5292 5.73972 28.8719C6.37161 29.0951 6.87775 29.3623 7.23928 29.9659C7.51907 30.4343 7.88374 30.843 8.22012 31.2863C6.77401 31.6226 4.14899 29.881 3.00781 27.627Z" fill="#AD892F"/>
<path d="M5.21094 31.3486C6.39613 32.0654 7.52787 32.3609 8.72563 32.4332C8.98971 32.4489 9.2915 32.5778 9.49585 32.757C10.0586 33.2474 10.5804 33.7913 11.118 34.3132C10.0837 34.9859 6.85511 33.6876 5.21094 31.3486Z" fill="#AD892F"/>
<path d="M51.1133 18.5068C50.7109 21.1004 48.941 23.6563 47.3125 23.9706C47.5514 23.213 47.7589 22.4585 48.0356 21.7323C48.133 21.4745 48.3751 21.2607 48.5857 21.0721C49.0384 20.6729 49.5446 20.3396 49.969 19.9121C50.3776 19.5034 50.7109 19.0098 51.1133 18.5068Z" fill="#AD892F"/>
<path d="M4.04192 23.9801C2.26571 23.4394 0.514649 20.8458 0.285156 18.4062C0.973634 19.7078 1.95762 20.4843 2.97619 21.2293C3.1711 21.3739 3.30943 21.6569 3.39431 21.9052C3.6238 22.5591 3.81243 23.2287 4.04192 23.9801Z" fill="#AD892F"/>
<path d="M51.2613 14.165C51.4122 16.2619 50.1359 19.0221 48.4414 19.8866C48.7998 18.67 48.4823 17.4251 49.504 16.4663C50.2019 15.8155 50.6955 14.9227 51.2613 14.165Z" fill="#AD892F"/>
<path d="M43.1562 31.3081C43.6152 30.6731 44.0491 30.0349 44.5301 29.4376C44.6872 29.2427 44.9576 29.1232 45.1965 29.0289C45.7467 28.8088 46.3251 28.6705 46.8596 28.419C47.3751 28.1769 47.8467 27.8374 48.312 27.5576C47.6266 29.4407 44.7627 31.6382 43.1562 31.3081Z" fill="#AD892F"/>
<path d="M45.5 27.8845C45.8772 27.1205 46.1916 26.4006 46.5877 25.7341C46.7449 25.4701 47.0782 25.3066 47.3485 25.1274C48.2665 24.5175 49.1939 23.9202 49.9735 23.4141C49.5114 25.4323 47.2919 27.6707 45.5 27.8845Z" fill="#AD892F"/>
<path d="M1.34766 23.3828C2.15874 23.911 3.083 24.4737 3.96639 25.1024C4.34992 25.3759 4.70202 25.7406 4.96924 26.1399C5.31505 26.6586 5.56026 27.2527 5.85263 27.8218C4.2116 27.8186 1.94811 25.4954 1.34766 23.3828Z" fill="#AD892F"/>
<path d="M33.2366 35.2715C32.6299 36.2743 32.0766 37.2175 31.4919 38.1386C31.341 38.3775 31.1209 38.6636 30.882 38.7359C30.074 38.9779 29.241 39.1383 28.3984 39.2672C29.6591 37.4658 31.3378 36.2712 33.2366 35.2715Z" fill="#AD892F"/>
<path d="M18.125 35.2715C20.0395 36.2806 21.6963 37.4752 22.9192 39.3175C22.1144 39.1351 21.2907 39.0062 20.5111 38.739C20.2062 38.6353 19.9547 38.2549 19.7535 37.9468C19.2064 37.1011 18.7003 36.224 18.125 35.2715Z" fill="#AD892F"/>
<path d="M36.4621 33.5771C36.1006 34.5769 35.7642 35.5986 35.3555 36.592C35.2297 36.9001 34.9562 37.2082 34.6733 37.3622C34.0697 37.6892 33.4158 37.9155 32.7305 38.2047C32.938 36.9661 35.2643 34.143 36.4621 33.5771Z" fill="#AD892F"/>
<path d="M14.8438 33.4395C16.4942 34.7535 17.8272 36.2185 18.742 38.0953C17.4845 38.0985 16.1987 37.1774 15.79 36.0173C15.5008 35.1999 15.1927 34.3889 14.8438 33.4395Z" fill="#AD892F"/>
<path d="M5.79544 10.2227C5.22643 12.1843 4.50965 14.0832 3.01009 15.6047C2.60455 14.2372 2.97866 12.8728 3.90606 12.0334C4.55052 11.4487 5.16669 10.8263 5.79544 10.2227Z" fill="#AD892F"/>
<path d="M45.5859 10.2646C46.4065 11.0412 47.2175 11.7548 47.9563 12.5439C48.2141 12.8205 48.3744 13.2732 48.4216 13.6693C48.497 14.2949 48.4404 14.9362 48.4404 15.7096C46.9 14.1346 46.1612 12.2704 45.5859 10.2646Z" fill="#AD892F"/>
<path d="M11.9766 31.0312C13.3629 32.6346 14.3972 34.3133 14.9757 36.5108C14.1835 35.9701 13.5201 35.5614 12.9134 35.0772C12.7153 34.92 12.6147 34.5711 12.5582 34.2913C12.3507 33.2476 12.1809 32.1976 11.9766 31.0312Z" fill="#AD892F"/>
<path d="M36.5898 36.3857C36.9734 34.2731 38.0297 32.6164 39.3846 31.0508C39.1834 32.2108 39.0262 33.2923 38.7967 34.3548C38.7244 34.6818 38.5138 35.037 38.2655 35.2414C37.7436 35.6721 37.1526 36.0116 36.5898 36.3857Z" fill="#AD892F"/>
<path d="M45.8372 17.8506C46.2993 18.734 46.7111 19.5891 47.1827 20.4064C47.5316 21.0163 47.6637 21.5916 47.3619 22.2707C47.1512 22.7454 47.0318 23.2641 46.8243 23.9054C45.8592 21.8997 45.7271 19.9066 45.8372 17.8506Z" fill="#AD892F"/>
<path d="M39.9297 33.9584C39.9926 31.8458 40.6842 30.035 41.7939 28.2305C41.7939 29.4817 41.8191 30.5977 41.7751 31.7074C41.7625 31.9935 41.5864 32.3268 41.3915 32.5437C40.9357 33.0435 40.4201 33.4899 39.9297 33.9584Z" fill="#AD892F"/>
<path d="M5.53072 17.8877C5.69419 19.9783 5.45213 21.9054 4.54987 23.9237C4.27951 23.0623 4.01544 22.3927 3.87083 21.6948C3.80481 21.3772 3.91798 20.9686 4.06574 20.6605C4.50586 19.7551 5.00257 18.8748 5.53072 17.8877Z" fill="#AD892F"/>
<path d="M9.60514 28.2617C10.6426 29.9436 11.3939 31.7733 11.4065 33.9456C10.8626 33.3986 10.2873 32.8767 9.79062 32.2857C9.63029 32.0971 9.61771 31.7261 9.61457 31.4369C9.59256 30.3743 9.60514 29.3086 9.60514 28.2617Z" fill="#AD892F"/>
<path d="M47.9615 19.9001C46.7166 18.0736 46.2733 16.1748 46.0312 14.0811C46.7669 15.0493 47.4522 15.9107 48.081 16.8192C48.2539 17.0676 48.3167 17.4637 48.2916 17.7812C48.2382 18.432 48.0935 19.0764 47.9615 19.9001Z" fill="#AD892F"/>
<path d="M6.3036 21.6133C6.85376 23.3581 6.86319 26.0428 6.28474 27.6555C5.89492 26.857 5.50509 26.1686 5.22845 25.4298C5.12785 25.1563 5.2536 24.757 5.35105 24.4395C5.64342 23.5058 5.97037 22.5878 6.3036 21.6133Z" fill="#AD892F"/>
<path d="M43.6946 24.9951C43.858 26.0703 43.9806 27.0857 44.1818 28.0854C44.3013 28.6701 44.185 29.1323 43.8423 29.5755C43.4996 30.0157 43.1664 30.4652 42.7546 30.8739C42.4874 28.8179 42.9243 26.9065 43.6946 24.9951Z" fill="#AD892F"/>
<path d="M5.3663 14.0459C5.07079 16.1019 4.70926 18.0604 3.35431 19.7078C3.26 18.9564 3.13425 18.2082 3.08709 17.4568C3.07137 17.2116 3.21913 16.9161 3.37003 16.7055C4.00506 15.819 4.67468 14.9576 5.3663 14.0459Z" fill="#AD892F"/>
<path d="M7.66302 25.0957C8.48667 26.7745 8.84506 28.9059 8.65644 30.8707C7.66302 30.286 7.0437 28.887 7.2449 27.7459C7.39894 26.8876 7.5184 26.0231 7.66302 25.0957Z" fill="#AD892F"/>
<path d="M45.0412 27.646C44.4628 25.502 44.6105 23.5309 45.0349 21.5283C45.3399 22.4463 45.6008 23.3297 45.934 24.1848C46.2075 24.8921 46.2327 25.5334 45.8303 26.1905C45.5694 26.6149 45.3525 27.0676 45.0412 27.646Z" fill="#AD892F"/>
<path d="M25.6007 38.4443L25.9056 39.3812H26.8927L26.0942 39.9628L26.3992 40.8996L25.6007 40.3211L24.8022 40.8996L25.1071 39.9628L24.3086 39.3812H25.2957L25.6007 38.4443Z" fill="#AD892F"/>
<path d="M72.7255 24.3401C72.6634 24.3683 72.607 24.3852 72.5562 24.3909H72.4658C72.2456 24.3909 72.0932 24.3005 72.0141 24.1199C71.9351 23.9505 71.8956 23.7585 71.8843 23.5553C71.873 23.4988 71.873 23.4367 71.873 23.3746V23.1996C71.8673 23.1544 71.8617 23.1036 71.8617 23.0528V22.9342C71.8335 22.3752 71.7939 21.9631 71.7318 21.7146C71.6697 21.4662 71.5568 21.246 71.3874 21.054C71.3648 21.0258 71.3422 21.0032 71.3197 20.9863L71.2519 20.9185C71.0374 20.7096 70.7663 20.5515 70.4558 20.4386C70.1396 20.3257 69.7387 20.2466 69.2645 20.2071L69.016 20.1845L69.2645 20.1563C69.3943 20.1394 69.5355 20.1224 69.6936 20.0942C69.846 20.066 69.9985 20.0377 70.1453 20.0039C70.6026 19.8853 71.0261 19.6933 71.41 19.4223C71.7883 19.1569 71.9803 18.7617 71.9803 18.2479C71.9803 17.6099 71.7375 17.1469 71.2688 16.8533C70.7889 16.5597 70.2582 16.3677 69.6936 16.2774C69.4508 16.2379 69.208 16.2097 68.9709 16.1927C68.7337 16.1814 68.5079 16.1758 68.3103 16.1758C67.9997 16.1758 67.6779 16.1758 67.3448 16.1814C67.023 16.1871 66.6955 16.1927 66.3793 16.1984C66.0575 16.2097 65.73 16.2153 65.4138 16.2153C65.1033 16.2209 64.7871 16.2153 64.4766 16.2097V16.4073H65.459V24.3909H64.4766V24.5772H68.2764V24.3909H67.2432V20.2862H67.9038C68.8805 20.2862 69.4734 20.5176 69.6766 20.975C69.8743 21.4267 69.9985 22.076 70.038 22.9003C70.0606 23.5383 70.2017 24.0126 70.4558 24.3118C70.7042 24.6054 71.0995 24.7579 71.6189 24.7579H71.7826C72.0198 24.7409 72.2569 24.6958 72.4771 24.628C72.686 24.5603 72.8667 24.4643 73.0135 24.3401L72.9401 24.2271C72.8441 24.2836 72.782 24.3175 72.7255 24.3401ZM67.3617 20.0998C67.3222 20.0998 67.2883 20.0998 67.2488 20.0998H67.2206V16.4016H67.2432C67.4295 16.3847 67.5989 16.3677 67.757 16.3565C67.9151 16.3452 68.0562 16.3395 68.1804 16.3395C68.858 16.3395 69.3435 16.475 69.6202 16.746C69.8968 17.0171 70.038 17.48 70.038 18.135C70.038 19.1118 69.7726 19.6933 69.2475 19.8683C68.762 20.0151 68.124 20.0998 67.3617 20.0998Z" fill="white"/>
<path d="M80.4722 22.0132V22.1148C80.4722 22.9618 80.2351 23.5659 79.7608 23.9047C79.3035 24.2378 78.6881 24.4015 77.9371 24.4015C77.9202 24.4015 77.8976 24.4015 77.8807 24.4015H76.0626V20.2968H76.6329C77.2201 20.2968 77.6605 20.4718 77.9484 20.8219C78.2307 21.1663 78.3719 21.6067 78.3775 22.1374H78.5526V18.3884L78.3549 18.3997C78.3493 19.224 78.163 19.7209 77.7903 19.8677C77.4233 20.0145 76.8531 20.0822 76.0965 20.0766H76.0626V16.4122L77.9597 16.4235C78.609 16.4235 79.1398 16.6155 79.5293 16.9994C79.9133 17.3777 80.1222 17.9028 80.1448 18.5578H80.3311L80.2916 16.209H73.2734V16.4066H74.2559V24.3902H73.2734V24.5765H80.6473V21.9172L80.461 21.9285C80.461 21.9342 80.461 21.9398 80.4666 21.9454C80.4666 21.9793 80.4722 21.9963 80.4722 22.0132Z" fill="white"/>
<path d="M85.7428 19.3761C85.6355 19.3592 85.5282 19.3423 85.4209 19.3197C85.3193 19.2971 85.212 19.2745 85.1104 19.2519C85.0031 19.235 84.8902 19.218 84.7886 19.1955C84.6869 19.1785 84.5853 19.1503 84.4667 19.1277C83.7948 18.9865 83.3206 18.8059 83.0552 18.6026C82.7898 18.3937 82.6543 18.0775 82.6543 17.6597C82.6543 17.2701 82.8294 16.9314 83.1681 16.6547C83.5069 16.378 83.9304 16.2369 84.4216 16.2369C85.1782 16.2369 85.7879 16.5192 86.2396 17.0725C86.6857 17.6145 86.9793 18.2243 87.1091 18.8793H87.3124V16.2312L87.1261 16.2425C87.1148 16.4232 87.0922 16.5418 87.047 16.6095C87.0018 16.6829 86.9115 16.7225 86.7816 16.7225C86.6631 16.7225 86.5163 16.6829 86.3469 16.6152C86.1832 16.5418 85.9912 16.4627 85.7879 16.3837C85.579 16.299 85.3475 16.22 85.1048 16.1522C84.862 16.0788 84.5853 16.0449 84.2974 16.0449C83.5295 16.0449 82.8858 16.2821 82.3833 16.745C81.8752 17.208 81.6211 17.8009 81.6211 18.501V18.6308C81.6211 18.676 81.6267 18.7155 81.6324 18.7607C81.6606 19.0712 81.7284 19.3761 81.8469 19.6641C81.9655 19.952 82.1405 20.2061 82.3833 20.4094C82.6148 20.6183 82.9028 20.7764 83.2472 20.878C83.5916 20.9796 83.9473 21.0756 84.3086 21.1603C84.3369 21.1716 84.3595 21.1772 84.382 21.1772C84.4103 21.1829 84.4329 21.1885 84.4611 21.1942C85.0483 21.3184 85.5847 21.4878 86.0589 21.691C86.5445 21.9 86.7873 22.3178 86.7873 22.9332C86.7873 23.4357 86.6123 23.8422 86.2622 24.1528C85.9121 24.4576 85.4548 24.6101 84.8958 24.6101C84.1618 24.6101 83.5408 24.3391 83.0496 23.797C82.564 23.2607 82.2026 22.6678 81.9768 22.0242C81.9429 21.9282 81.9147 21.8322 81.8865 21.7362C81.8639 21.6459 81.8413 21.5555 81.8131 21.4596H81.6211L81.6832 24.5875H81.8469C81.8469 24.5762 81.8526 24.5649 81.8582 24.5536V24.5141L81.8639 24.5085C81.8865 24.4859 81.909 24.4576 81.9203 24.4294C81.9373 24.3955 81.9486 24.3673 81.9542 24.3334V24.3108V24.3052C81.9824 24.2431 82.0107 24.1866 82.0446 24.1302C82.0841 24.0681 82.1575 24.0342 82.2704 24.0342C82.3325 24.0342 82.4511 24.0737 82.6317 24.1584C82.8068 24.2374 83.0213 24.3278 83.2641 24.4181C83.49 24.5085 83.7384 24.5931 84.015 24.6609C84.2861 24.7343 84.5684 24.7738 84.8507 24.7908H84.9749C85.8162 24.7908 86.5106 24.5254 87.0527 24.0003C87.5947 23.4752 87.8657 22.7977 87.8657 21.9734C87.8657 21.2789 87.6737 20.703 87.3011 20.2739C86.9341 19.8448 86.409 19.5399 85.7428 19.3761Z" fill="white"/>
<path d="M88.7136 16.2197L88.6289 18.8057L88.8265 18.8169C88.8548 18.066 89.0862 17.4788 89.5097 17.0666C89.9388 16.6488 90.5316 16.4286 91.2769 16.423H91.6835V24.4066H90.5994V24.5929H94.5743V24.4066H93.5015V16.4343H93.5297C93.9476 16.4343 94.3597 16.4625 94.7437 16.5246C95.1389 16.5867 95.4777 16.8069 95.76 17.1796C95.935 17.4054 96.0761 17.6595 96.1721 17.9361C96.2681 18.2015 96.3246 18.4951 96.3415 18.8113H96.5278L96.477 16.2254H88.7136V16.2197Z" fill="white"/>
<path d="M99.5964 16.2197L99.5117 18.8057L99.7093 18.8169C99.7376 18.066 99.9691 17.4788 100.393 17.0666C100.822 16.6488 101.414 16.4286 102.16 16.423H102.566V24.4066H101.482V24.5929H105.457V24.4066H104.384V16.4343H104.413C104.83 16.4343 105.243 16.4625 105.626 16.5246C106.022 16.5867 106.36 16.8069 106.643 17.1796C106.818 17.4054 106.959 17.6595 107.055 17.9361C107.151 18.2015 107.207 18.4951 107.224 18.8113H107.411L107.36 16.2254H99.5964V16.2197Z" fill="white"/>
<path d="M114.067 20.0704H110.577V16.4173H111.565V16.2197H107.766V16.4173H108.748V24.401H107.766V24.5929H111.565V24.401H110.577V20.2736H114.067V24.401H113.084V24.5929H116.867V24.401H115.885V16.4173H116.867V16.2197H113.084V16.4173H114.067V20.0704Z" fill="white"/>
<path d="M124.359 22.0132V22.1148C124.359 22.9618 124.122 23.5659 123.648 23.9047C123.19 24.2378 122.575 24.4015 121.824 24.4015C121.807 24.4015 121.784 24.4015 121.767 24.4015H119.949V20.2968H120.52C121.107 20.2968 121.547 20.4718 121.835 20.8219C122.117 21.1663 122.259 21.6067 122.264 22.1374H122.439V18.3884L122.242 18.3997C122.236 19.224 122.05 19.7209 121.677 19.8677C121.31 20.0145 120.74 20.0822 119.983 20.0766H119.955V16.4122L121.852 16.4235C122.507 16.4235 123.032 16.6155 123.422 16.9994C123.806 17.3777 124.015 17.9028 124.037 18.5578H124.223L124.184 16.209H117.16V16.4066H118.148V24.3902H117.16V24.5765H124.534V21.9172L124.348 21.9285C124.348 21.9342 124.348 21.9398 124.353 21.9454C124.359 21.9793 124.359 21.9963 124.359 22.0132Z" fill="white"/>
<path d="M135.991 21.6855H135.827C135.692 22.5324 135.342 23.2382 134.788 23.7915C134.229 24.3505 133.58 24.6328 132.863 24.6328C132.214 24.6328 131.745 24.3787 131.463 23.8762C131.186 23.3794 131 22.826 130.915 22.2388C130.876 21.9565 130.847 21.6686 130.83 21.3919C130.819 21.1153 130.813 20.8612 130.813 20.6466C130.813 19.1165 130.988 17.9817 131.327 17.2759C131.672 16.5645 132.219 16.1975 132.948 16.1975C133.603 16.1975 134.156 16.4403 134.602 16.9258C135.042 17.4058 135.375 17.9421 135.584 18.5124C135.613 18.6084 135.641 18.7044 135.669 18.7891C135.697 18.8738 135.72 18.9584 135.737 19.0375H135.929L135.906 16.2765L135.776 16.2878C135.776 16.2935 135.771 16.2935 135.771 16.2991C135.765 16.3104 135.759 16.3161 135.754 16.3217V16.3499L135.748 16.3556C135.742 16.3612 135.737 16.3669 135.737 16.3782C135.731 16.3895 135.731 16.4008 135.731 16.4008V16.4064L135.726 16.412C135.675 16.4967 135.618 16.5588 135.567 16.5984C135.511 16.6322 135.438 16.6548 135.336 16.6548C135.206 16.6548 135.054 16.621 134.89 16.5532C134.715 16.4798 134.534 16.412 134.354 16.3386C134.162 16.2652 133.947 16.1918 133.716 16.1241C133.49 16.0563 133.247 16.0225 132.998 16.0225C131.892 16.0225 130.909 16.4742 130.074 17.3719C129.238 18.2696 128.82 19.3311 128.82 20.5281C128.82 21.7307 129.221 22.7526 130.012 23.5657C130.802 24.3844 131.79 24.7965 132.948 24.7965H133.049C133.077 24.7965 133.111 24.7909 133.145 24.7852C133.377 24.7683 133.603 24.7288 133.828 24.6667C134.054 24.6046 134.263 24.5368 134.455 24.4578C134.67 24.3674 134.856 24.2827 135.008 24.2093C135.217 24.1134 135.279 24.1021 135.308 24.1021C135.387 24.1021 135.46 24.119 135.522 24.1585C135.584 24.1924 135.641 24.2545 135.697 24.3448C135.714 24.3787 135.737 24.4182 135.759 24.4634C135.782 24.5029 135.805 24.5481 135.827 24.5933H135.985C135.98 24.3505 135.974 24.1416 135.974 23.9778V22.6284C135.98 22.3461 135.985 22.0356 135.991 21.6855Z" fill="white"/>
<path d="M143.75 24.3845L140.56 16H140.407L137.759 23.4472C137.624 23.8312 137.46 24.0909 137.285 24.2151C137.115 24.3393 136.85 24.3958 136.494 24.3958C136.477 24.3958 136.466 24.3958 136.449 24.3958V24.5821H138.821V24.3958L138.646 24.4071C138.397 24.4071 138.211 24.3788 138.081 24.3167C137.951 24.2546 137.883 24.1474 137.883 24.0006C137.883 23.9159 137.895 23.8142 137.923 23.6957C137.951 23.5827 137.985 23.4585 138.024 23.3343L138.538 21.9171H140.898L140.904 21.9341L141.774 24.3958H140.802V24.5821H144.551V24.3958H143.75V24.3845ZM138.623 21.7139L139.718 18.5916L140.831 21.7139H138.623Z" fill="white"/>
<path d="M149.557 19.3761C149.45 19.3592 149.342 19.3423 149.235 19.3197C149.134 19.2971 149.026 19.2745 148.925 19.2519C148.817 19.235 148.704 19.218 148.603 19.1955C148.501 19.1785 148.4 19.1503 148.281 19.1277C147.609 18.9865 147.135 18.8059 146.869 18.6026C146.604 18.3937 146.469 18.0775 146.469 17.6597C146.469 17.2701 146.644 16.9314 146.982 16.6547C147.321 16.378 147.745 16.2369 148.236 16.2369C148.992 16.2369 149.602 16.5192 150.054 17.0725C150.5 17.6145 150.794 18.2243 150.918 18.8793H151.121V16.2312L150.935 16.2425C150.923 16.4232 150.901 16.5418 150.856 16.6095C150.81 16.6829 150.72 16.7225 150.59 16.7225C150.472 16.7225 150.325 16.6829 150.155 16.6152C149.992 16.5418 149.8 16.4627 149.597 16.3837C149.388 16.299 149.156 16.22 148.913 16.1522C148.671 16.0788 148.394 16.0449 148.106 16.0449C147.338 16.0449 146.694 16.2821 146.192 16.745C145.684 17.208 145.43 17.8009 145.43 18.501V18.6308C145.43 18.676 145.435 18.7155 145.441 18.7607C145.469 19.0712 145.537 19.3761 145.656 19.6641C145.774 19.952 145.949 20.2061 146.192 20.4094C146.423 20.6183 146.711 20.7764 147.056 20.878C147.4 20.9796 147.756 21.0756 148.117 21.1603C148.145 21.1716 148.168 21.1772 148.191 21.1772C148.219 21.1829 148.241 21.1885 148.27 21.1942C148.857 21.3184 149.393 21.4878 149.868 21.691C150.353 21.9 150.596 22.3178 150.596 22.9332C150.596 23.4357 150.421 23.8422 150.071 24.1528C149.721 24.4576 149.263 24.6101 148.704 24.6101C147.97 24.6101 147.349 24.3391 146.858 23.797C146.373 23.2607 146.011 22.6678 145.785 22.0242C145.752 21.9282 145.723 21.8322 145.695 21.7362C145.672 21.6459 145.65 21.5555 145.622 21.4596H145.43L145.492 24.5875H145.656C145.656 24.5762 145.661 24.5649 145.667 24.5536V24.5141L145.672 24.5085C145.695 24.4859 145.718 24.4576 145.729 24.4294C145.746 24.3955 145.757 24.3673 145.763 24.3334V24.3108V24.3052C145.791 24.2431 145.819 24.1866 145.853 24.1302C145.893 24.0681 145.966 24.0342 146.079 24.0342C146.141 24.0342 146.26 24.0737 146.44 24.1584C146.615 24.2374 146.83 24.3278 147.073 24.4181C147.299 24.5085 147.547 24.5931 147.824 24.6609C148.095 24.7343 148.377 24.7738 148.659 24.7908H148.783C149.625 24.7908 150.319 24.5254 150.861 24.0003C151.403 23.4752 151.674 22.7977 151.674 21.9734C151.674 21.2789 151.482 20.703 151.11 20.2739C150.748 19.8448 150.223 19.5399 149.557 19.3761Z" fill="white"/>
<path d="M159.822 21.957C159.828 21.9795 159.828 21.9965 159.828 22.0134V22.115C159.828 22.962 159.591 23.5661 159.116 23.9049C158.659 24.238 158.044 24.4017 157.293 24.4017C157.276 24.4017 157.253 24.4017 157.236 24.4017H155.418V20.297H155.988C156.576 20.297 157.016 20.472 157.304 20.8221C157.586 21.1665 157.727 21.6069 157.733 22.1376H157.908V18.3886L157.71 18.3999C157.705 19.2242 157.518 19.7211 157.146 19.8735C156.779 20.0203 156.209 20.0881 155.452 20.0824H155.424V16.4181L157.321 16.4294C157.976 16.4294 158.501 16.6214 158.89 17.0053C159.274 17.3836 159.483 17.9087 159.506 18.5636H159.692L159.653 16.2148H152.629V16.4125H153.617V24.3961H152.629V24.5824H160.003V21.9231L159.816 21.9344C159.816 21.9457 159.816 21.9513 159.822 21.957Z" fill="white"/>
</svg>
